HIERARCHY
ROOT Hips #0
{
	OFFSET -42.198200 91.614723 -40.067841
	CHANNELS 6 Xposition Yposition Zposition Zrotation Yrotation Xrotation 
	JOINT LeftUpLeg #1
	{
		OFFSET 0.103456 1.857829 10.548506
		CHANNELS 3 Zrotation Yrotation Xrotation
		JOINT LeftLeg #2
		{
			OFFSET 43.499992 -0.000038 -0.000002
			CHANNELS 3 Zrotation Yrotation Xrotation
			JOINT LeftFoot #3
			{
				OFFSET 42.372192 0.000015 -0.000007
				CHANNELS 3 Zrotation Yrotation Xrotation
				JOINT LeftToe #4
				{
					OFFSET 17.299999 -0.000002 0.000003
					CHANNELS 3 Zrotation Yrotation Xrotation
					End Site #5
					{
						OFFSET 0.000000 0.000000 0.000000
					}
				}
			}
		}
	}
	JOINT RightUpLeg #6
	{
		OFFSET 0.103457 1.857829 -10.548503
		CHANNELS 3 Zrotation Yrotation Xrotation
		JOINT RightLeg #7
		{
			OFFSET 43.500042 -0.000027 0.000008
			CHANNELS 3 Zrotation Yrotation Xrotation
			JOINT RightFoot #8
			{
				OFFSET 42.372257 -0.000008 0.000014
				CHANNELS 3 Zrotation Yrotation Xrotation
				JOINT RightToe #9
				{
					OFFSET 17.299992 -0.000005 0.000004
					CHANNELS 3 Zrotation Yrotation Xrotation
					End Site #10
					{
						OFFSET 0.000000 0.000000 0.000000
					}
				}
			}
		}
	}
	JOINT Spine #11
	{
		OFFSET 6.901968 -2.603733 -0.000001
		CHANNELS 3 Zrotation Yrotation Xrotation
		JOINT Spine1 #12
		{
			OFFSET 12.588099 0.000002 0.000000
			CHANNELS 3 Zrotation Yrotation Xrotation
			JOINT Spine2 #13
			{
				OFFSET 12.343206 0.000000 -0.000001
				CHANNELS 3 Zrotation Yrotation Xrotation
				JOINT Neck #14
				{
					OFFSET 25.832886 -0.000004 0.000003
					CHANNELS 3 Zrotation Yrotation Xrotation
					JOINT Head #15
					{
						OFFSET 11.766620 0.000005 -0.000001
						CHANNELS 3 Zrotation Yrotation Xrotation
						End Site #16
						{
							OFFSET 0.000000 0.000000 0.000000
						}
					}
				}
				JOINT LeftShoulder #17
				{
					OFFSET 19.745899 -1.480370 6.000108
					CHANNELS 3 Zrotation Yrotation Xrotation
					JOINT LeftArm #18
					{
						OFFSET 11.284125 -0.000009 -0.000018
						CHANNELS 3 Zrotation Yrotation Xrotation
						JOINT LeftForeArm #19
						{
							OFFSET 33.000050 0.000004 0.000032
							CHANNELS 3 Zrotation Yrotation Xrotation
							JOINT LeftHand #20
							{
								OFFSET 25.200008 0.000015 0.000008
								CHANNELS 3 Zrotation Yrotation Xrotation
								End Site #21
								{
									OFFSET 0.000000 0.000000 0.000000
								}
							}
						}
					}
				}
				JOINT RightShoulder #22
				{
					OFFSET 19.746099 -1.480375 -6.000073
					CHANNELS 3 Zrotation Yrotation Xrotation
					JOINT RightArm #23
					{
						OFFSET 11.284138 -0.000015 -0.000012
						CHANNELS 3 Zrotation Yrotation Xrotation
						JOINT RightForeArm #24
						{
							OFFSET 33.000092 0.000017 0.000013
							CHANNELS 3 Zrotation Yrotation Xrotation
							JOINT RightHand #25
							{
								OFFSET 25.199780 0.000135 0.000422
								CHANNELS 3 Zrotation Yrotation Xrotation
								End Site #26
								{
									OFFSET 0.000000 0.000000 0.000000
								}
							}
						}
					}
				}
			}
		}
	}
}
MOTION
Frames: 8
Frame Time: 0.033333
-133.822296 87.235542 -233.183502 85.118828 -0.650400 130.863597 176.971690 -8.315306 167.200312 -55.006023 2.670666 1.583344 72.458615 -2.998277 -5.658530 21.454558 0.003097 -0.000001 149.513783 -4.893499 -173.953375 -32.841056 -2.205601 6.116297 81.229275 -4.149710 0.594478 21.454558 -0.003106 -0.000018 7.436141 1.138664 -1.181888 4.836893 2.325284 -2.315986 4.518790 2.311410 -2.329979 7.344449 12.378786 3.212509 -27.379143 -6.242848 8.315890 -161.953798 -83.628372 -19.815805 -28.697293 58.111004 22.354437 -43.702173 -22.170869 2.031755 9.302038 -1.817238 14.058324 -176.783833 78.065080 4.732376 8.587223 -62.808323 -18.895935 -27.850337 8.595850 -0.801461 8.806148 -0.242528 -13.399833 
-131.825500 87.913239 -230.682098 84.958688 -0.609838 131.167499 170.820381 -9.133197 170.146979 -65.125922 1.873776 -0.503221 68.543892 -1.681663 -5.572885 21.454551 0.003085 -0.000001 152.136248 -4.874207 -172.384754 -31.986374 -2.613397 5.344258 83.020881 -3.584082 0.628296 21.454558 -0.003108 -0.000017 7.428474 1.203122 -0.944135 4.825597 2.444182 -1.838071 4.507361 2.433184 -1.852795 7.068835 12.203373 2.639870 -26.654571 -6.356555 7.707447 -160.493285 -83.585369 -21.291723 -27.464879 58.771660 24.262809 -41.904215 -21.403923 1.928792 10.220043 -0.120072 14.960344 -175.872645 78.015787 5.660512 7.517027 -62.366840 -18.964596 -29.692198 8.686785 -0.840726 8.344476 -0.412228 -14.474195 
-129.794495 88.526031 -228.249802 84.883378 -0.564342 131.526508 165.044951 -9.591094 171.317414 -72.238451 1.786789 -1.895969 71.620257 -0.644371 -5.928115 21.454550 0.003090 0.000002 154.857204 -4.831304 -172.160013 -31.003188 -2.423289 5.265439 84.566635 -3.457286 0.947029 21.454558 -0.003106 -0.000016 7.429183 1.241910 -0.709948 4.831685 2.512085 -1.368151 4.513356 2.503919 -1.383293 6.851895 11.803700 2.122049 -26.065631 -6.394340 7.089808 -159.955667 -83.317277 -21.838534 -25.870772 59.154896 26.610279 -40.277738 -20.731152 1.839374 11.057010 0.944050 15.292691 -175.560355 77.928190 5.977805 5.879469 -61.695931 -18.578763 -31.695257 8.870959 -0.891808 7.603999 -0.128936 -14.823519 
-127.659401 89.171181 -225.871597 85.087573 -0.816771 131.699093 159.463183 -9.551693 171.062484 -75.784904 2.013371 -2.920249 72.879054 0.415756 -5.068241 21.454558 0.003097 0.000001 157.671256 -4.544095 -173.019292 -29.733036 -2.026952 5.598600 85.750170 -3.589218 1.455557 21.454558 -0.003104 -0.000018 7.417776 1.159591 -0.478828 4.814389 2.337887 -0.909562 4.496060 2.332481 -0.923660 6.694516 11.029302 1.673172 -25.654797 -6.164276 6.369341 -157.491048 -83.136701 -24.332597 -23.973537 59.604397 29.091886 -38.893891 -20.095935 1.760933 11.480836 1.632410 14.833245 -176.309094 78.006812 5.215497 3.930675 -61.452749 -17.339844 -33.588760 9.387886 -0.965310 7.125442 0.358845 -14.525944 
-125.346901 89.692833 -223.503494 85.355201 -1.059009 131.815698 154.523700 -9.348500 170.396049 -76.083731 2.236174 -3.697823 73.627568 0.699852 -6.033066 21.454551 0.003093 0.000000 160.606380 -4.174894 -173.009375 -28.399527 -2.142577 5.488921 86.958253 -3.385616 2.113151 21.454557 -0.003111 -0.000017 7.390377 1.059614 -0.252194 4.764442 2.128580 -0.460989 4.446115 2.125891 -0.473833 6.795842 10.074363 1.394400 -25.264600 -5.887379 5.756020 -156.126158 -82.916646 -25.716764 -21.316964 59.969170 31.605935 -37.716906 -19.252321 1.675777 11.410657 1.823889 13.297053 -177.969431 78.296303 3.527613 1.935611 -61.396946 -15.583529 -35.257344 9.802022 -1.029453 6.501580 1.375350 -14.060510 
-122.909897 89.961662 -221.114899 85.510362 -1.170089 131.924298 150.328133 -9.174496 169.656845 -73.431056 2.235811 -3.921166 74.806233 0.966435 -5.897353 21.454541 0.003089 0.000000 163.514865 -3.793695 -172.567543 -27.291163 -2.198740 5.160399 88.441941 -3.058020 2.728888 21.454557 -0.003108 -0.000017 7.356117 0.980516 -0.033300 4.699830 1.961513 -0.027084 4.381529 1.961448 -0.038929 6.962164 9.303543 1.199720 -25.113943 -5.816123 5.368471 -155.663126 -82.689624 -26.189599 -18.090065 60.253832 34.354287 -36.808897 -18.827944 1.625641 11.293690 2.086515 12.244974 -179.910803 78.668411 1.557009 -0.252273 -61.290566 -13.600581 -36.777010 10.022036 -1.079210 5.872134 2.275594 -13.365468 
-120.415802 89.958321 -218.636307 85.221110 -1.117529 131.968503 146.777214 -9.368894 169.515064 -68.271491 1.826119 -3.610188 75.782274 0.776619 -6.033887 21.454553 0.003092 0.000001 166.230904 -3.936395 -172.043996 -26.311552 -2.385039 4.848708 90.063605 -2.756269 3.394912 21.454560 -0.003103 -0.000016 7.272084 0.984902 0.200936 4.535708 1.961191 0.440050 4.217432 1.963948 0.428196 6.854393 8.725918 1.082919 -24.973574 -5.825489 5.154756 -154.599310 -82.377047 -27.272694 -14.279324 60.421479 36.905602 -36.605689 -18.570931 1.604024 11.458992 2.451063 12.297027 178.784668 79.075620 0.237511 -2.687514 -61.037610 -11.637089 -38.228623 10.166780 -1.123912 5.270827 2.986849 -12.552598 
-117.753998 89.764648 -216.082001 85.040179 -0.977670 131.875298 144.598574 -9.274513 169.583926 -60.613599 1.319802 -3.651686 76.342233 0.714034 -6.554305 21.454557 0.003094 0.000001 169.096428 -4.003690 -171.673390 -25.532212 -2.498818 4.535334 91.802674 -2.482627 4.057495 21.454560 -0.003113 -0.000017 7.210778 0.972254 0.441501 4.417052 1.927057 0.919567 4.098814 1.932714 0.907911 6.593225 8.133409 0.957742 -24.698203 -5.873625 4.948079 -152.967264 -82.104570 -28.930977 -10.743919 60.528283 39.643904 -36.388267 -18.625125 1.602241 11.617869 2.636630 11.739062 177.736808 79.485958 -0.819008 -5.251790 -60.700957 -9.507459 -39.650307 10.281999 -1.167298 4.863003 3.269446 -12.460351 
